<?xml version="1.0" encoding="UTF-8" standalone="no"?>
<svg
   xmlns:dc="http://purl.org/dc/elements/1.1/"
   xmlns:cc="http://creativecommons.org/ns#"
   xmlns:rdf="http://www.w3.org/1999/02/22-rdf-syntax-ns#"
   xmlns:svg="http://www.w3.org/2000/svg"
   xmlns="http://www.w3.org/2000/svg"
   xmlns:sodipodi="http://sodipodi.sourceforge.net/DTD/sodipodi-0.dtd"
   xmlns:inkscape="http://www.inkscape.org/namespaces/inkscape"
   width="1024"
   height="768"
   viewBox="0 0 270.93333 203.20001"
   version="1.1"
   id="svg8"
   inkscape:version="1.0.1 (3bc2e813f5, 2020-09-07)"
   sodipodi:docname="GameOverScreen.svg"
   inkscape:export-filename="C:\Users\Rhyan\Desktop\GameOverScreen.png"
   inkscape:export-xdpi="96"
   inkscape:export-ydpi="96">
  <defs
     id="defs2" />
  <sodipodi:namedview
     id="base"
     pagecolor="#ffffff"
     bordercolor="#666666"
     borderopacity="1.0"
     inkscape:pageopacity="0.0"
     inkscape:pageshadow="2"
     inkscape:zoom="0.7"
     inkscape:cx="938.4769"
     inkscape:cy="405.67413"
     inkscape:document-units="mm"
     inkscape:current-layer="layer1"
     inkscape:document-rotation="0"
     showgrid="false"
     units="px"
     inkscape:pagecheckerboard="true"
     inkscape:window-width="1920"
     inkscape:window-height="1017"
     inkscape:window-x="-8"
     inkscape:window-y="-8"
     inkscape:window-maximized="1" />
  <metadata
     id="metadata5">
    <rdf:RDF>
      <cc:Work
         rdf:about="">
        <dc:format>image/svg+xml</dc:format>
        <dc:type
           rdf:resource="http://purl.org/dc/dcmitype/StillImage" />
        <dc:title></dc:title>
      </cc:Work>
    </rdf:RDF>
  </metadata>
  <g
     inkscape:label="Layer 1"
     inkscape:groupmode="layer"
     id="layer1">
    <rect
       style="fill:#333333;fill-opacity:1;stroke-width:0.371695;stroke-linecap:round;stop-color:#000000"
       id="rect1124"
       width="270.93332"
       height="203.2"
       x="7.1207683e-06"
       y="1.5258789e-06"
       ry="0" />
    <ellipse
       style="display:inline;fill:#4d4d4d;fill-opacity:1;stroke-width:0.265881;stroke-linecap:round;stop-color:#000000"
       id="path70"
       cx="52.704525"
       cy="141.82567"
       rx="38.571095"
       ry="5.3201513" />
    <rect
       style="fill:#529995;fill-opacity:1;stroke-width:0.743025;stroke-linecap:round;stop-color:#000000"
       id="rect135-5-4-7"
       width="14.060397"
       height="52.811993"
       x="-55.213608"
       y="62.441292"
       ry="7.0301986"
       rx="0"
       inkscape:transform-center-x="-3.5497882"
       inkscape:transform-center-y="31.758829"
       transform="matrix(-0.98953886,-0.14426658,-0.14426658,0.98953886,0,0)" />
    <path
       id="rect135-5-2-5-0"
       style="fill:#529995;fill-opacity:1;stroke-width:0.462106;stroke-linecap:round;stop-color:#000000"
       d="m 44.824924,124.03047 v 13.85844 c 0,3.61814 -2.330437,3.68098 -5.225169,3.68098 -2.894731,0 -5.225176,-0.0628 -5.225176,-3.68098 v -13.85844 z"
       sodipodi:nodetypes="cssscc" />
    <rect
       style="fill:#5fb3ae;fill-opacity:1;stroke-width:1.58957;stroke-linecap:round;stop-color:#000000"
       id="rect135-3"
       width="44.081249"
       height="77.096603"
       x="-72.378723"
       y="56.054176"
       ry="23.538343"
       rx="20.900595"
       transform="scale(-1,1)" />
    <path
       id="rect135-5-2-4"
       style="fill:#5eb1ac;fill-opacity:1;stroke-width:0.462106;stroke-linecap:round;stop-color:#000000"
       d="m 66.64404,124.03047 v 13.85844 c 0,3.61814 -2.330437,3.68098 -5.225168,3.68098 -2.894739,0 -5.225169,-0.0628 -5.225169,-3.68098 v -13.85844 z"
       sodipodi:nodetypes="cssscc" />
    <path
       id="path137-3-8"
       style="fill:#f2f2f2;stroke-width:0.931886;stroke-linecap:round;stop-color:#000000"
       d="M 32.132324,75.824807 59.44033,62.67073 a 15.675447,15.675447 0 0 1 -0.271548,20.676376 15.675447,15.675447 0 0 1 -22.138281,1.152262 15.675447,15.675447 0 0 1 -4.898177,-8.674561 z" />
    <circle
       style="fill:#000000;fill-opacity:1;stroke-width:0.163787;stroke-linecap:round;stop-color:#000000"
       id="path137-3-1-9-6"
       cx="-37.47831"
       cy="77.954231"
       r="2.7550793"
       transform="scale(-1,1)" />
    <circle
       style="fill:#294d4b;fill-opacity:1;stroke-width:0.682142;stroke-linecap:round;stop-color:#000000"
       id="path137-3-9"
       cx="-45.123425"
       cy="102.28342"
       r="11.474394"
       transform="scale(-1,1)" />
    <rect
       style="display:inline;fill:#6dccc6;fill-opacity:1;stroke-width:0.743025;stroke-linecap:round;stop-color:#000000"
       id="rect135-5-4-7-9"
       width="14.060397"
       height="52.811993"
       x="46.187138"
       y="97.578163"
       ry="7.0301986"
       rx="0"
       inkscape:transform-center-x="3.5497979"
       inkscape:transform-center-y="31.758829"
       transform="rotate(-8.2948109)" />
    <ellipse
       style="display:inline;fill:#4d4d4d;fill-opacity:1;stroke-width:0.265881;stroke-linecap:round;stop-color:#000000"
       id="path70-9"
       cx="135.46669"
       cy="141.82567"
       rx="38.571095"
       ry="5.3201513" />
    <rect
       style="fill:#993938;fill-opacity:1;stroke-width:0.743025;stroke-linecap:round;stop-color:#000000"
       id="rect135-5-4-7-94"
       width="14.060397"
       height="52.811993"
       x="-137.11"
       y="50.501472"
       ry="7.0301986"
       rx="0"
       inkscape:transform-center-x="-3.5497882"
       inkscape:transform-center-y="31.758829"
       transform="matrix(-0.98953886,-0.14426658,-0.14426658,0.98953886,0,0)" />
    <path
       id="rect135-5-2-5-0-1"
       style="fill:#993938;fill-opacity:1;stroke-width:0.462106;stroke-linecap:round;stop-color:#000000"
       d="m 127.5871,124.03047 v 13.85844 c 0,3.61814 -2.33043,3.68098 -5.22516,3.68098 -2.89474,0 -5.22518,-0.0628 -5.22518,-3.68098 v -13.85844 z"
       sodipodi:nodetypes="cssscc" />
    <rect
       style="fill:#b34341;fill-opacity:1;stroke-width:1.58957;stroke-linecap:round;stop-color:#000000"
       id="rect135-3-4"
       width="44.081249"
       height="77.096603"
       x="-155.1409"
       y="56.054173"
       ry="23.538343"
       rx="20.900595"
       transform="scale(-1,1)" />
    <path
       id="rect135-5-2-4-5"
       style="fill:#b34341;fill-opacity:1;stroke-width:0.462106;stroke-linecap:round;stop-color:#000000"
       d="m 149.40622,124.03047 v 13.85844 c 0,3.61814 -2.33044,3.68098 -5.22517,3.68098 -2.89474,0 -5.22517,-0.0628 -5.22517,-3.68098 v -13.85844 z"
       sodipodi:nodetypes="cssscc" />
    <path
       id="path137-3-8-8"
       style="fill:#f2f2f2;stroke-width:0.931886;stroke-linecap:round;stop-color:#000000"
       d="m 114.8945,75.824803 27.30801,-13.154077 a 15.675447,15.675447 0 0 1 -0.27155,20.676377 15.675447,15.675447 0 0 1 -22.13828,1.152262 15.675447,15.675447 0 0 1 -4.89818,-8.674562 z" />
    <circle
       style="fill:#000000;fill-opacity:1;stroke-width:0.163787;stroke-linecap:round;stop-color:#000000"
       id="path137-3-1-9-6-8"
       cx="-120.24049"
       cy="77.954224"
       r="2.7550793"
       transform="scale(-1,1)" />
    <circle
       style="fill:#4d1d1c;fill-opacity:1;stroke-width:0.682142;stroke-linecap:round;stop-color:#000000"
       id="path137-3-9-7"
       cx="-127.8856"
       cy="102.28342"
       r="11.474394"
       transform="scale(-1,1)" />
    <rect
       style="display:inline;fill:#cc4c4a;fill-opacity:1;stroke-width:0.743025;stroke-linecap:round;stop-color:#000000"
       id="rect135-5-4-7-9-5"
       width="14.060397"
       height="52.811993"
       x="128.08353"
       y="109.51803"
       ry="7.0301986"
       rx="0"
       inkscape:transform-center-x="3.5497979"
       inkscape:transform-center-y="31.758829"
       transform="rotate(-8.2948109)" />
    <ellipse
       style="display:inline;fill:#4d4d4d;fill-opacity:1;stroke-width:0.265881;stroke-linecap:round;stop-color:#000000"
       id="path70-91"
       cx="218.22881"
       cy="141.82567"
       rx="38.571095"
       ry="5.3201513" />
    <rect
       style="fill:#925299;fill-opacity:1;stroke-width:0.743025;stroke-linecap:round;stop-color:#000000"
       id="rect135-5-4-7-91"
       width="14.060397"
       height="52.811993"
       x="-219.00641"
       y="38.561653"
       ry="7.0301986"
       rx="0"
       inkscape:transform-center-x="-3.5497882"
       inkscape:transform-center-y="31.758829"
       transform="matrix(-0.98953886,-0.14426658,-0.14426658,0.98953886,0,0)" />
    <path
       id="rect135-5-2-5-0-2"
       style="fill:#905197;fill-opacity:1;stroke-width:0.462106;stroke-linecap:round;stop-color:#000000"
       d="m 210.34929,124.03047 v 13.85844 c 0,3.61814 -2.33043,3.68098 -5.22516,3.68098 -2.89474,0 -5.22518,-0.0628 -5.22518,-3.68098 v -13.85844 z"
       sodipodi:nodetypes="cssscc" />
    <rect
       style="fill:#aa5fb3;fill-opacity:1;stroke-width:1.58957;stroke-linecap:round;stop-color:#000000"
       id="rect135-3-40"
       width="44.081249"
       height="77.096603"
       x="-237.90309"
       y="56.054173"
       ry="23.538343"
       rx="20.900595"
       transform="scale(-1,1)" />
    <path
       id="rect135-5-2-4-8"
       style="fill:#aa5fb3;fill-opacity:1;stroke-width:0.462106;stroke-linecap:round;stop-color:#000000"
       d="m 232.16841,124.03047 v 13.85844 c 0,3.61814 -2.33044,3.68098 -5.22517,3.68098 -2.89474,0 -5.22517,-0.0628 -5.22517,-3.68098 v -13.85844 z"
       sodipodi:nodetypes="cssscc" />
    <path
       id="path137-3-8-0"
       style="fill:#f2f2f2;stroke-width:0.931886;stroke-linecap:round;stop-color:#000000"
       d="M 197.65669,75.824803 224.9647,62.670726 a 15.675447,15.675447 0 0 1 -0.27155,20.676377 15.675447,15.675447 0 0 1 -22.13828,1.152262 15.675447,15.675447 0 0 1 -4.89818,-8.674562 z" />
    <circle
       style="fill:#000000;fill-opacity:1;stroke-width:0.163787;stroke-linecap:round;stop-color:#000000"
       id="path137-3-1-9-6-7"
       cx="-203.00269"
       cy="77.954224"
       r="2.7550793"
       transform="scale(-1,1)" />
    <circle
       style="fill:#49294d;fill-opacity:1;stroke-width:0.682142;stroke-linecap:round;stop-color:#000000"
       id="path137-3-9-0"
       cx="-210.6478"
       cy="102.28342"
       r="11.474394"
       transform="scale(-1,1)" />
    <rect
       style="display:inline;fill:#c26dcc;fill-opacity:1;stroke-width:0.743025;stroke-linecap:round;stop-color:#000000"
       id="rect135-5-4-7-9-6"
       width="14.060397"
       height="52.811993"
       x="209.97983"
       y="121.45789"
       ry="7.0301986"
       rx="0"
       inkscape:transform-center-x="3.5497979"
       inkscape:transform-center-y="31.758829"
       transform="rotate(-8.2948109)" />
  </g>
</svg>
