<?xml version="1.0" encoding="UTF-8" standalone="no"?>
<svg
   xmlns:dc="http://purl.org/dc/elements/1.1/"
   xmlns:cc="http://creativecommons.org/ns#"
   xmlns:rdf="http://www.w3.org/1999/02/22-rdf-syntax-ns#"
   xmlns:svg="http://www.w3.org/2000/svg"
   xmlns="http://www.w3.org/2000/svg"
   xmlns:sodipodi="http://sodipodi.sourceforge.net/DTD/sodipodi-0.dtd"
   xmlns:inkscape="http://www.inkscape.org/namespaces/inkscape"
   width="1024"
   height="768"
   viewBox="0 0 270.93333 203.20001"
   version="1.1"
   id="svg8"
   inkscape:version="1.0.1 (3bc2e813f5, 2020-09-07)"
   sodipodi:docname="MainMenuScreen.svg"
   inkscape:export-filename="C:\Users\Rhyan\Desktop\MainMenuScreen.png"
   inkscape:export-xdpi="96"
   inkscape:export-ydpi="96">
  <defs
     id="defs2" />
  <sodipodi:namedview
     id="base"
     pagecolor="#ffffff"
     bordercolor="#666666"
     borderopacity="1.0"
     inkscape:pageopacity="0.0"
     inkscape:pageshadow="2"
     inkscape:zoom="0.7"
     inkscape:cx="767.30195"
     inkscape:cy="538.55819"
     inkscape:document-units="mm"
     inkscape:current-layer="layer1"
     inkscape:document-rotation="0"
     showgrid="false"
     units="px"
     inkscape:pagecheckerboard="true"
     inkscape:window-width="1920"
     inkscape:window-height="1017"
     inkscape:window-x="-8"
     inkscape:window-y="-8"
     inkscape:window-maximized="1" />
  <metadata
     id="metadata5">
    <rdf:RDF>
      <cc:Work
         rdf:about="">
        <dc:format>image/svg+xml</dc:format>
        <dc:type
           rdf:resource="http://purl.org/dc/dcmitype/StillImage" />
        <dc:title />
      </cc:Work>
    </rdf:RDF>
  </metadata>
  <g
     inkscape:label="Layer 1"
     inkscape:groupmode="layer"
     id="layer1">
    <rect
       style="fill:#333333;fill-opacity:1;stroke-width:0.371695;stroke-linecap:round;stop-color:#000000"
       id="rect1124"
       width="270.93332"
       height="203.2"
       x="7.1207683e-06"
       y="1.5258789e-06"
       ry="0" />
    <rect
       style="display:inline;fill:#808080;fill-opacity:1;stroke-width:1.13416;stroke-linecap:round;stop-color:#000000"
       id="rect1311"
       width="272.26746"
       height="204.28"
       x="-1.3341298"
       y="-1.0800079" />
    <rect
       style="display:inline;fill:#1c2422;fill-opacity:1;stroke-width:1.0068;stroke-linecap:round;stop-color:#000000"
       id="rect1311-9"
       width="241.69197"
       height="181.33949"
       x="13.953671"
       y="10.390236" />
    <g
       id="g869"
       transform="translate(-1.5610949)">
      <path
         id="path153-8-06"
         style="display:inline;fill:#0044aa;fill-opacity:1;stroke-width:19.9698;stroke-linecap:round;stop-color:#000000"
         d="M 159.4917,121.34159 A 98.892813,84.765265 0 0 0 62.287847,191.72973 H 257.20674 a 98.892813,84.765265 0 0 0 -97.45944,-70.38814 98.892813,84.765265 0 0 0 -0.25544,0 z" />
      <path
         id="path153-8-06-9"
         style="display:inline;fill:#003380;fill-opacity:1;stroke-width:19.9698;stroke-linecap:round;stop-color:#000000"
         d="m 159.4917,121.34159 a 98.892813,84.765265 0 0 0 -97.203853,70.38815 h 14.016924 a 105.82486,105.82486 0 0 1 96.223339,-61.7791 105.82486,105.82486 0 0 1 59.52246,18.32644 98.892813,84.765265 0 0 0 -72.30324,-26.93549 98.892813,84.765265 0 0 0 -0.25543,0 z" />
    </g>
    <rect
       style="display:inline;fill:#e2e3db;fill-opacity:0.166667;stroke-width:0.319747;stroke-linecap:round;stop-color:#000000"
       id="rect1262-3-5"
       width="14.721923"
       height="47.129601"
       x="234.21648"
       y="14.565362" />
    <g
       id="g131"
       transform="translate(-153.82169,-24.119899)">
      <path
         id="ellipse1592"
         style="display:inline;fill:#4d4d4d;fill-opacity:1;stroke-width:0.373999;stroke-linecap:round;filter:url(#filter1777);stop-color:#000000"
         d="m 283.66634,255.90677 a 54.255711,7.4835467 0 0 1 -54.25571,7.48355 54.255711,7.4835467 0 0 1 -54.25571,-7.48355 54.255711,7.4835467 0 0 1 54.25571,-7.48355 54.255711,7.4835467 0 0 1 54.25571,7.48355 z" />
      <path
         id="rect1604"
         style="display:inline;fill:#4d4d4d;stroke-width:0.341781;stroke-linecap:round;filter:url(#filter1777);stop-color:#000000"
         d="m 193.70137,179.88313 h 53.14983 c 1.90643,0 3.44122,1.53478 3.44122,3.44122 v 34.90393 c 0,1.90643 -1.53479,3.44121 -3.44122,3.44121 h -53.14983 c -1.90643,0 -3.44121,-1.53478 -3.44121,-3.44121 v -34.90393 c 0,-1.90644 1.53478,-3.44122 3.44121,-3.44122 z" />
      <path
         id="path1606"
         style="display:inline;fill:#999999;fill-opacity:1;stroke-width:0.650018;stroke-linecap:round;filter:url(#filter1777);stop-color:#000000"
         d="m 235.33597,232.39458 v 19.49385 c 0,5.08943 3.27809,5.17782 7.34994,5.17782 4.07185,0 7.34994,-0.0884 7.34994,-5.17782 v -19.49385 z"
         sodipodi:nodetypes="cssscc" />
      <path
         id="rect1608"
         style="display:inline;fill:#999999;fill-opacity:1;stroke-width:0.83198;stroke-linecap:round;filter:url(#filter1777);stop-color:#000000"
         d="m 254.55102,181.9064 c 5.47849,0 9.88897,4.98886 9.88897,11.18579 v 24.70169 c 0,6.19693 -4.41048,11.18579 -9.88897,11.18579 -5.47849,0 -9.88897,-4.98886 -9.88897,-11.18579 v -24.70169 c 0,-6.19693 4.41048,-11.18579 9.88897,-11.18579 z" />
      <path
         id="circle1612"
         style="display:inline;fill:#999999;fill-opacity:1;stroke-width:0.720201;stroke-linecap:round;filter:url(#filter1777);stop-color:#000000"
         d="m 275.84064,152.38936 a 12.114629,12.114629 0 0 1 -12.11463,12.11463 12.114629,12.114629 0 0 1 -12.11463,-12.11463 12.114629,12.114629 0 0 1 12.11463,-12.11463 12.114629,12.114629 0 0 1 12.11463,12.11463 z" />
      <path
         id="rect1614"
         style="display:inline;fill:#b3b3b3;fill-opacity:1;stroke-width:2.45251;stroke-linecap:round;filter:url(#filter1777);stop-color:#000000"
         d="m 225.97733,114.75224 h 3.20723 c 16.28741,0 29.39965,17.76604 29.39965,39.83417 v 50.80301 c 0,22.06813 -13.11224,39.83417 -29.39965,39.83417 h -3.20723 c -16.2874,0 -29.39965,-17.76604 -29.39965,-39.83417 v -50.80301 c 0,-22.06813 13.11225,-39.83417 29.39965,-39.83417 z" />
      <path
         id="circle1616"
         style="display:inline;fill:#cccccc;stroke-width:0.720201;stroke-linecap:round;filter:url(#filter1777);stop-color:#000000"
         d="m 201.22818,152.38936 a 12.114629,12.114629 0 0 1 -12.11462,12.11463 12.114629,12.114629 0 0 1 -12.11463,-12.11463 12.114629,12.114629 0 0 1 12.11463,-12.11463 12.114629,12.114629 0 0 1 12.11462,12.11463 z" />
      <path
         id="circle1618"
         style="display:inline;fill:#cccccc;stroke-width:2.574;stroke-linecap:round;filter:url(#filter1777);stop-color:#000000"
         d="m 270.92697,150.87746 a 43.297665,43.297665 0 0 1 -43.29767,43.29766 43.297665,43.297665 0 0 1 -43.29766,-43.29766 43.297665,43.297665 0 0 1 43.29766,-43.29767 43.297665,43.297665 0 0 1 43.29767,43.29767 z" />
      <path
         id="circle1620"
         style="display:inline;fill:#4d4d4d;stroke-width:2.24033;stroke-linecap:round;filter:url(#filter1777);stop-color:#000000"
         d="m 265.04168,151.15547 a 37.685005,37.685005 0 0 1 -37.68501,37.68501 37.685005,37.685005 0 0 1 -37.685,-37.68501 37.685005,37.685005 0 0 1 37.685,-37.685 37.685005,37.685005 0 0 1 37.68501,37.685 z" />
      <path
         id="circle1622"
         style="display:inline;fill:#f2f2f2;stroke-width:0.778555;stroke-linecap:round;filter:url(#filter1777);stop-color:#000000"
         d="m 253.01453,135.92111 a 13.096209,13.096209 0 0 1 -13.09621,13.09621 13.096209,13.096209 0 0 1 -13.09621,-13.09621 13.096209,13.096209 0 0 1 13.09621,-13.09621 13.096209,13.096209 0 0 1 13.09621,13.09621 z" />
      <path
         id="circle1624"
         style="display:inline;fill:#f2f2f2;fill-opacity:1;stroke-width:0.341611;stroke-linecap:round;filter:url(#filter1777);stop-color:#000000"
         d="m 258.89983,155.55469 a 5.7462964,5.7462964 0 0 1 -5.7463,5.74629 5.7462964,5.7462964 0 0 1 -5.74629,-5.74629 5.7462964,5.7462964 0 0 1 5.74629,-5.7463 5.7462964,5.7462964 0 0 1 5.7463,5.7463 z" />
      <path
         id="path1626"
         style="display:inline;fill:#b3b3b3;fill-opacity:1;stroke-width:0.650018;stroke-linecap:round;filter:url(#filter1777);stop-color:#000000"
         d="m 204.64431,232.39458 v 19.49385 c 0,5.08943 3.27809,5.17782 7.34994,5.17782 4.07185,0 7.34993,-0.0884 7.34993,-5.17782 v -19.49385 z"
         sodipodi:nodetypes="cssscc" />
      <path
         id="rect1632"
         style="display:inline;fill:#e6e6e6;fill-opacity:1;stroke-width:1.8178;stroke-linecap:round;filter:url(#filter1777);stop-color:#000000"
         d="m 220.38603,197.08388 h 15.28873 c 5.01923,0 9.05998,4.04075 9.05998,9.05998 v 8.49373 c 0,5.01924 -4.04075,9.05999 -9.05998,9.05999 h -15.28873 c -5.01923,0 -9.05998,-4.04075 -9.05998,-9.05999 v -8.49373 c 0,-5.01923 4.04075,-9.05998 9.05998,-9.05998 z" />
      <path
         id="rect1634"
         style="display:inline;fill:#cccccc;fill-opacity:1;stroke-width:0.452871;stroke-linecap:round;filter:url(#filter1777);stop-color:#000000"
         d="m 229.07308,202.75751 h 11.51283 c 0.73473,0 1.32623,0.59149 1.32623,1.32622 v 1.24334 c 0,0.73473 -0.5915,1.32623 -1.32623,1.32623 h -11.51283 c -0.73473,0 -1.32622,-0.5915 -1.32622,-1.32623 v -1.24334 c 0,-0.73473 0.59149,-1.32622 1.32622,-1.32622 z" />
      <path
         id="rect1636"
         style="display:inline;fill:#cccccc;fill-opacity:1;stroke-width:0.452871;stroke-linecap:round;filter:url(#filter1777);stop-color:#000000"
         d="m 229.07308,208.04918 h 11.51283 c 0.73473,0 1.32623,0.5915 1.32623,1.32623 v 1.24333 c 0,0.73473 -0.5915,1.32623 -1.32623,1.32623 h -11.51283 c -0.73473,0 -1.32622,-0.5915 -1.32622,-1.32623 v -1.24333 c 0,-0.73473 0.59149,-1.32623 1.32622,-1.32623 z" />
      <path
         id="rect1638"
         style="display:inline;fill:#cccccc;fill-opacity:1;stroke-width:0.452871;stroke-linecap:round;filter:url(#filter1777);stop-color:#000000"
         d="m 229.07308,213.34085 h 11.51283 c 0.73473,0 1.32623,0.5915 1.32623,1.32623 v 1.24333 c 0,0.73473 -0.5915,1.32623 -1.32623,1.32623 h -11.51283 c -0.73473,0 -1.32622,-0.5915 -1.32622,-1.32623 v -1.24333 c 0,-0.73473 0.59149,-1.32623 1.32622,-1.32623 z" />
      <path
         id="circle1640"
         style="display:inline;fill:#cccccc;fill-opacity:1;stroke-width:0.243304;stroke-linecap:round;filter:url(#filter1777);stop-color:#000000"
         d="m 224.79538,209.92003 a 4.0926504,4.0926504 0 0 1 -4.09265,4.09265 4.0926504,4.0926504 0 0 1 -4.09265,-4.09265 4.0926504,4.0926504 0 0 1 4.09265,-4.09265 4.0926504,4.0926504 0 0 1 4.09265,4.09265 z" />
      <path
         id="circle1642"
         style="display:inline;fill:#f26100;fill-opacity:1;stroke-width:0.165938;stroke-linecap:round;filter:url(#filter1777);stop-color:#000000"
         d="m 223.494,209.92003 a 2.7912707,2.7912707 0 0 1 -2.79127,2.79127 2.7912707,2.7912707 0 0 1 -2.79127,-2.79127 2.7912707,2.7912707 0 0 1 2.79127,-2.79127 2.7912707,2.7912707 0 0 1 2.79127,2.79127 z" />
      <path
         id="rect1646"
         style="display:inline;fill:#0088aa;fill-opacity:1;stroke-width:0.815107;stroke-linecap:round;filter:url(#filter1777);stop-color:#000000"
         transform="rotate(-90)"
         d="m -174.31164,223.54025 h 4.12637 c 3.22083,0 5.81377,2.59294 5.81377,5.81377 v 45.0971 c 0,3.22083 -2.59294,5.81377 -5.81377,5.81377 h -4.12637 c -3.22083,0 -5.81377,-2.59294 -5.81377,-5.81377 v -45.0971 c 0,-3.22083 2.59294,-5.81377 5.81377,-5.81377 z" />
      <path
         id="circle1648"
         style="display:inline;fill:#55ddff;fill-opacity:1;stroke-width:0.184676;stroke-linecap:round;filter:url(#filter1777);stop-color:#000000"
         d="m 299.51576,172.24844 a 3.106463,3.106463 0 0 1 -3.10646,3.10647 3.106463,3.106463 0 0 1 -3.10646,-3.10647 3.106463,3.106463 0 0 1 3.10646,-3.10646 3.106463,3.106463 0 0 1 3.10646,3.10646 z" />
      <path
         id="rect1650"
         style="display:inline;fill:#55ddff;fill-opacity:1;stroke-width:0.140029;stroke-linecap:round;filter:url(#filter1777);stop-color:#000000"
         transform="rotate(-90)"
         d="m -173.05814,280.26321 h 1.61936 v 16.28616 h -1.61936 z" />
      <path
         id="circle1652"
         style="display:inline;fill:#00aad4;fill-opacity:1;stroke-width:0.309938;stroke-linecap:round;filter:url(#filter1777);stop-color:#000000"
         d="m 236.09482,172.24844 a 5.2135339,5.2135339 0 0 1 -5.21353,5.21354 5.2135339,5.2135339 0 0 1 -5.21354,-5.21354 5.2135339,5.2135339 0 0 1 5.21354,-5.21353 5.2135339,5.2135339 0 0 1 5.21353,5.21353 z" />
      <path
         id="rect1654"
         style="display:inline;fill:#00aad4;fill-opacity:1;stroke-width:0.26684;stroke-linecap:round;filter:url(#filter1777);stop-color:#000000"
         transform="rotate(-90)"
         d="m -168.80186,239.73724 c 0.72753,0 1.31323,0.58571 1.31323,1.31324 v 33.83715 c 0,0.72753 -0.5857,1.31324 -1.31323,1.31324 -0.72753,0 -1.31324,-0.58571 -1.31324,-1.31324 v -33.83715 c 0,-0.72753 0.58571,-1.31324 1.31324,-1.31324 z" />
      <path
         id="rect1656"
         style="display:inline;fill:#00aad4;fill-opacity:1;stroke-width:0.246483;stroke-linecap:round;filter:url(#filter1777);stop-color:#000000"
         transform="rotate(-90)"
         d="m -172.60258,245.08859 h 0.38546 c 0.62076,0 1.12051,0.49975 1.12051,1.12051 v 28.87127 c 0,0.62076 -0.49975,1.12051 -1.12051,1.12051 h -0.38546 c -0.62076,0 -1.1205,-0.49975 -1.1205,-1.12051 V 246.2091 c 0,-0.62076 0.49974,-1.12051 1.1205,-1.12051 z" />
      <path
         id="rect1658"
         style="display:inline;fill:#00aad4;fill-opacity:1;stroke-width:0.26684;stroke-linecap:round;filter:url(#filter1777);stop-color:#000000"
         transform="rotate(-90)"
         d="m -176.01782,239.73724 c 0.72753,0 1.31323,0.58571 1.31323,1.31324 v 33.83715 c 0,0.72753 -0.5857,1.31324 -1.31323,1.31324 -0.72753,0 -1.31323,-0.58571 -1.31323,-1.31324 v -33.83715 c 0,-0.72753 0.5857,-1.31324 1.31323,-1.31324 z" />
      <path
         id="circle1660"
         style="display:inline;fill:#55ddff;fill-opacity:1;stroke-width:0.180669;stroke-linecap:round;filter:url(#filter1777);stop-color:#000000"
         d="m 233.92034,172.24844 a 3.0390499,3.0390499 0 0 1 -3.03905,3.03905 3.0390499,3.0390499 0 0 1 -3.03905,-3.03905 3.0390499,3.0390499 0 0 1 3.03905,-3.03905 3.0390499,3.0390499 0 0 1 3.03905,3.03905 z" />
      <path
         id="path1664"
         style="display:inline;fill:#0088aa;fill-opacity:1;stroke-width:0.397182;stroke-linecap:round;filter:url(#filter1777);stop-color:#000000"
         d="m 225.07039,193.39479 c 0.7806,1.42508 2.29229,2.38797 4.038,2.38797 1.74571,0 3.2574,-0.96289 4.03799,-2.38797 z" />
      <path
         id="rect1668"
         style="display:inline;fill:#cccccc;fill-opacity:1;stroke-width:0.83198;stroke-linecap:round;filter:url(#filter1777);stop-color:#000000"
         transform="rotate(-90)"
         d="m -184.59356,195.83896 c 5.47849,0 9.88897,4.98886 9.88897,11.18579 v 24.70169 c 0,6.19693 -4.41048,11.18579 -9.88897,11.18579 -5.47849,0 -9.88897,-4.98886 -9.88897,-11.18579 v -24.70169 c 0,-6.19693 4.41048,-11.18579 9.88897,-11.18579 z" />
    </g>
    <rect
       style="display:inline;fill:#e2e3db;fill-opacity:0.166667;stroke-width:0.205869;stroke-linecap:round;stop-color:#000000"
       id="rect1262-3-5-2"
       width="14.721923"
       height="19.537338"
       x="234.21648"
       y="66.986626" />
    <rect
       style="display:inline;fill:#e2e3db;fill-opacity:0.166667;stroke-width:0.113421;stroke-linecap:round;stop-color:#000000"
       id="rect1262-3-5-2-5"
       width="14.721923"
       height="5.9301953"
       x="234.21648"
       y="93.444946" />
  </g>
</svg>
